<svg width="23" height="29" viewBox="0 0 23 29" fill="none" xmlns="http://www.w3.org/2000/svg">
<path d="M18.6342 15.2894C18.6475 14.2085 18.9217 13.1487 19.4313 12.2086C19.9409 11.2685 20.6693 10.4786 21.5488 9.9125C20.9901 9.07702 20.253 8.38946 19.3961 7.90441C18.5393 7.41937 17.5862 7.15021 16.6125 7.11832C14.5357 6.89006 12.5222 8.41957 11.4639 8.41957C10.3851 8.41957 8.75559 7.14098 7.00091 7.17878C5.86594 7.21717 4.75982 7.56275 3.79032 8.18183C2.82082 8.80092 2.02101 9.67239 1.46883 10.7114C-0.923137 15.0475 0.861051 21.4203 3.15235 24.9253C4.29874 26.6417 5.63853 28.5588 7.39163 28.4909C9.10714 28.4163 9.74785 27.3455 11.8186 27.3455C13.8702 27.3455 14.4713 28.4909 16.2599 28.4476C18.1008 28.4163 19.2606 26.7237 20.3667 24.9911C21.1904 23.7682 21.8242 22.4165 22.2447 20.9863C21.1752 20.5127 20.2626 19.7199 19.6205 18.7069C18.9785 17.6938 18.6355 16.5052 18.6342 15.2894Z" fill="white"/>
<path d="M15.2558 4.81306C16.2595 3.55147 16.754 1.9299 16.6342 0.292725C15.1008 0.46136 13.6844 1.22872 12.6671 2.44191C12.1698 3.03459 11.7888 3.72409 11.5461 4.471C11.3034 5.21792 11.2036 6.0076 11.2526 6.7949C12.0196 6.80317 12.7783 6.6291 13.4718 6.28581C14.1652 5.94253 14.7752 5.43897 15.2558 4.81306Z" fill="white"/>
</svg>
