<svg width="51" height="82" viewBox="0 0 51 82" fill="none" xmlns="http://www.w3.org/2000/svg">
<path d="M37.5386 34.6034L38.9997 34.9428L37.5386 34.6034ZM11.3647 11.2311L10.8628 9.8176L11.3647 11.2311ZM0.954416 13.8023C0.598421 14.5503 0.916234 15.4453 1.66427 15.8013L13.8542 21.6026C14.6023 21.9586 15.4973 21.6408 15.8533 20.8927C16.2093 20.1447 15.8914 19.2497 15.1434 18.8937L4.30788 13.737L9.46457 2.90149C9.82056 2.15346 9.50275 1.25846 8.75471 0.902466C8.00668 0.546473 7.11168 0.864284 6.75569 1.61232L0.954416 13.8023ZM37.7649 40.2586L38.9997 34.9428L36.0775 34.264L34.8427 39.5798L37.7649 40.2586ZM10.8628 9.8176L1.80691 13.0333L2.8108 15.8604L11.8667 12.6446L10.8628 9.8176ZM38.9997 34.9428C42.8444 18.3917 26.875 4.13165 10.8628 9.8176L11.8667 12.6446C25.6446 7.75209 39.3857 20.0223 36.0775 34.264L38.9997 34.9428Z" fill="#51585F"/>
<path d="M44.9933 48.3155C42.3682 50.918 42.5076 53.3933 42.5097 56.3693L28.2455 42.2282C26.5935 40.5905 23.8907 40.5907 22.2389 42.2282C20.5871 43.8658 20.587 46.5455 22.2389 48.183L28.822 54.7094C26.5902 54.4835 24.5925 55.9713 24.227 58.184L21.5032 68.3071C21.1293 69.7079 21.4896 71.259 22.595 72.3549L27.5339 77.2512C32.9038 82.5748 41.6073 82.5748 46.9772 77.2512C49.578 74.6728 50.907 71.3186 50.9865 67.941L51 47.5564C51.0049 44.7608 47.0125 46.3139 44.9933 48.3155Z" fill="#E0DCDC"/>
<path d="M32.6193 52.5045L24.697 44.5564C22.9316 42.7852 19.9402 45.1048 21.3799 47.1512C21.5166 47.3454 21.6713 47.5306 21.8444 47.7041L28.4367 54.318H31.8705C32.8141 54.318 33.2865 53.1737 32.6193 52.5045Z" fill="#B2D2E0"/>
<path d="M42.2223 56.976L44.8698 59.6321C45.537 60.3014 46.6776 59.8273 46.6776 58.8809V49.3975C46.6776 48.5139 45.6339 47.98 44.9676 48.558C42.0359 51.1005 42.2207 54.3951 42.2223 56.976Z" fill="#B2D2E0"/>
<path d="M31.0245 74.0594C30.2704 73.452 25.1245 69.1192 22.1174 66.1161L21.4221 68.7755C21.2794 70.6025 21.4893 71.254 22.595 72.3549C23.4578 73.2138 27.7969 77.4877 28.6829 78.2014C34.3372 82.7597 42.3834 82.5207 47.3415 76.758C41.8704 79.2312 35.848 77.9477 31.0245 74.0594Z" fill="#B2D2E0"/>
</svg>
