<svg width="65" height="97" viewBox="0 0 65 97" fill="none" xmlns="http://www.w3.org/2000/svg">
<path d="M64.1484 57.5253C68.3723 35.6151 50.138 9.23125 44.2732 1.44446C43.2739 0.11766 41.4492 -0.239972 40.0297 0.612758C31.6989 5.61727 4.99033 23.1925 0.7665 45.1028C-2.3991 61.5237 7.27883 77.4575 22.7399 82.3574L20.7931 92.4563C20.4069 94.4597 21.7044 96.3994 23.6913 96.7888C25.6775 97.1781 27.6019 95.8699 27.9881 93.8665L29.9349 83.7676C46.0906 85.0644 60.9829 73.9462 64.1484 57.5253Z" fill="#CBFA83"/>
<path d="M42.5479 52.1765L33.5277 50.4086L38.5137 37.7128C38.7893 37.0541 37.966 36.491 37.4611 36.993L20.7649 53.6279C20.1418 54.2488 20.463 55.319 21.3226 55.4875L30.3435 57.2555L25.3575 69.9513C25.0817 70.6107 25.9051 71.1731 26.4101 70.6711L43.1061 54.0368C43.7292 53.416 43.4081 52.3451 42.5479 52.1765Z" fill="#0EB16A"/>
<path d="M26.1014 20.8852C25.3034 20.7288 24.7817 19.9498 24.9369 19.1445L25.3513 16.9952C25.5064 16.1905 26.2795 15.6653 27.0775 15.8218C27.8762 15.9783 28.3973 16.7571 28.2421 17.5618L27.8278 19.7111C27.6725 20.5164 26.9001 21.0418 26.1014 20.8852Z" fill="#495058"/>
<path d="M49.6558 25.5022C48.8571 25.3456 48.3361 24.5668 48.4913 23.7614L48.9057 21.6121C49.0608 20.8075 49.8332 20.2821 50.6319 20.4387C51.4299 20.5951 51.9517 21.3741 51.7965 22.1787L51.3822 24.328C51.2269 25.1334 50.4538 25.6586 49.6558 25.5022Z" fill="#495058"/>
<path d="M37.6578 24.3405C36.1079 24.0367 34.7776 23.097 34.0088 21.7626C33.6003 21.0532 33.8391 20.1449 34.5419 19.7329C35.2454 19.321 36.1462 19.5617 36.5549 20.2704C36.8969 20.8643 37.5036 21.2852 38.2197 21.4256C38.9351 21.5658 39.654 21.4047 40.1918 20.9832C40.834 20.4805 41.7594 20.5977 42.2579 21.2452C42.7572 21.8928 42.641 22.8259 41.9989 23.3286C40.7895 24.2753 39.2077 24.6443 37.6578 24.3405Z" fill="#495058"/>
<path d="M23.7352 12.2035C13.8637 20.4442 3.29304 31.9972 0.766502 45.1031C-2.39909 61.524 7.27884 77.4578 22.7399 82.3577C-13.1076 51.345 23.7336 12.204 23.7352 12.2035Z" fill="#96CB45"/>
</svg>
