<svg width="48" height="20" viewBox="0 0 48 20" fill="none" xmlns="http://www.w3.org/2000/svg">
<path d="M8.36877 17.2137C5.92123 17.2137 3.91455 16.3558 2.34873 14.6399C0.78291 12.9083 0 10.8933 0 8.59504C0 6.86344 0.387654 5.32861 1.16296 3.99055C1.93827 2.6525 2.90361 1.65289 4.05897 0.991735C5.21433 0.330578 6.4305 0 7.70748 0C9.66855 0 11.2952 0.409287 12.5874 1.22786C13.8795 2.0307 14.5256 3.07753 14.5256 4.36836C14.5256 5.01377 14.3356 5.53325 13.9556 5.9268C13.5907 6.32034 13.0966 6.51712 12.4733 6.51712C11.7436 6.51712 11.0823 6.27312 10.4895 5.78512C9.89658 5.29713 9.43292 4.76978 9.09847 4.20307C8.77923 3.62062 8.39157 3.0854 7.93551 2.5974C7.49465 2.1094 7.03858 1.86541 6.56732 1.86541C5.92883 1.86541 5.42716 2.19599 5.06231 2.85714C4.69746 3.50256 4.51503 4.34475 4.51503 5.38371C4.51503 7.69776 4.9863 9.69697 5.92883 11.3813C6.88656 13.0657 8.04192 13.9079 9.39491 13.9079C9.66855 13.9079 9.89658 13.8843 10.079 13.8371V11.0744C10.079 10.6493 9.87378 10.2243 9.46332 9.79929C9.06807 9.35852 8.87044 9.03581 8.87044 8.83117V8.73672C8.87044 8.59504 8.93125 8.47698 9.05287 8.38253C9.17448 8.28808 9.3265 8.24085 9.50893 8.24085L14.9133 8.26446C15.2933 8.26446 15.4834 8.42975 15.4834 8.76033V8.85478C15.4834 9.05942 15.3085 9.38213 14.9589 9.8229C14.6092 10.2479 14.4344 10.673 14.4344 11.098V13.5773C14.4344 13.9709 14.3584 14.3093 14.2064 14.5927C14.0696 14.876 13.7959 15.183 13.3855 15.5136C11.9869 16.647 10.3146 17.2137 8.36877 17.2137Z" fill="#755DFF"/>
<path d="M23.7356 5.40732C24.3893 5.40732 24.9062 5.64345 25.2862 6.1157C25.6815 6.57221 25.8791 7.16253 25.8791 7.88666C25.8791 9.55529 25.2254 10.3896 23.9181 10.3896C23.386 10.3896 22.9831 10.2715 22.7095 10.0354C22.451 9.78355 22.299 9.50807 22.2534 9.20897C22.223 8.90988 22.1546 8.64227 22.0482 8.40614C21.9418 8.15427 21.7746 8.02833 21.5465 8.02833C21.1817 8.02833 20.9992 8.51633 20.9992 9.49232V14.144C20.9992 14.4746 21.1057 14.7737 21.3185 15.0413C21.5313 15.3089 21.7441 15.5529 21.957 15.7733C22.1698 15.9937 22.2762 16.1983 22.2762 16.3872V16.4817C22.2762 16.8123 22.0862 16.9776 21.7061 16.9776H16.2562C15.8761 16.9776 15.6861 16.8123 15.6861 16.4817V16.3872C15.6861 16.1826 15.8381 15.8678 16.1422 15.4427C16.4614 15.002 16.621 14.5691 16.621 14.144V10.1063C16.621 9.77568 16.5222 9.5002 16.3246 9.27981C16.1422 9.04368 15.9521 8.83904 15.7545 8.66588C15.5569 8.47698 15.4581 8.28807 15.4581 8.09917V8.00472C15.4581 7.72137 15.6481 7.47737 16.0281 7.27273L19.6539 5.50177C19.9731 5.37584 20.1935 5.36796 20.3151 5.47816C20.452 5.58835 20.5204 5.78512 20.5204 6.06848V7.79221C21.022 6.20228 22.0938 5.40732 23.7356 5.40732Z" fill="#755DFF"/>
<path d="M34.9496 13.1523C35.1169 12.9634 35.3069 12.9083 35.5197 12.987C35.7325 13.0657 35.839 13.2389 35.839 13.5065C35.839 14.2936 35.4057 15.1122 34.5392 15.9622C33.6879 16.7965 32.5781 17.2137 31.2099 17.2137C29.5073 17.2137 28.1239 16.6627 27.0597 15.5608C26.0108 14.4589 25.4863 13.0185 25.4863 11.2397C25.4863 9.52381 26.0412 8.12278 27.1509 7.0366C28.2759 5.95041 29.6061 5.40732 31.1415 5.40732C32.5401 5.40732 33.6194 5.73003 34.3795 6.37544C35.1549 7.02086 35.5425 7.74498 35.5425 8.54781C35.5425 9.13026 35.2841 9.59465 34.7672 9.94097L30.6398 12.7273C31.2327 13.5144 31.9928 13.9079 32.9201 13.9079C33.7867 13.9079 34.4632 13.656 34.9496 13.1523ZM30.7766 6.68241C30.4118 6.68241 30.1154 6.87131 29.8873 7.24911C29.6745 7.62692 29.5681 8.07556 29.5681 8.59504C29.5681 9.66549 29.7049 10.6021 29.9785 11.405L31.4379 10.2952C31.8332 9.99606 32.0308 9.56316 32.0308 8.99646C32.0308 8.79181 32.0156 8.5793 31.9852 8.35891C31.9548 8.12278 31.894 7.87092 31.8028 7.6033C31.7268 7.33569 31.5976 7.11531 31.4151 6.94215C31.2327 6.76899 31.0199 6.68241 30.7766 6.68241Z" fill="#755DFF"/>
<path d="M48 6.46989C48 6.70602 47.9392 6.90279 47.8176 7.06021C47.696 7.21763 47.5667 7.31995 47.4299 7.36718C47.3083 7.4144 47.1183 7.4695 46.8598 7.53247C46.6014 7.57969 46.419 7.62692 46.3126 7.67414C46.9815 8.58717 47.3159 9.53168 47.3159 10.5077C47.3159 12.2865 46.5254 13.6246 44.9444 14.5218C45.9173 14.7265 46.5938 15.0256 46.9739 15.4191C47.3539 15.8127 47.5439 16.3164 47.5439 16.9303C47.5439 17.8119 46.9511 18.5439 45.7653 19.1263C44.5795 19.7088 43.1277 20 41.4099 20C37.807 20 36.0055 19.0161 36.0055 17.0484C36.0055 16.5919 36.1575 16.1905 36.4616 15.8442C36.7656 15.4821 37.1989 15.3011 37.7614 15.3011C38.263 15.3011 38.6887 15.4821 39.0383 15.8442C39.388 16.1905 39.6388 16.5761 39.7909 17.0012C39.9581 17.4419 40.1785 17.8434 40.4521 18.2054C40.7258 18.5675 41.045 18.7564 41.4099 18.7721C41.9115 18.7879 42.2992 18.6226 42.5728 18.2763C42.8465 17.9457 42.9833 17.5049 42.9833 16.954C42.9833 16.0252 42.8009 15.4585 42.436 15.2538C42.0712 15.2853 41.8051 15.3011 41.6379 15.3011C39.9657 15.3011 38.5975 14.8603 37.5333 13.9787C36.4692 13.0972 35.9371 11.9402 35.9371 10.5077C35.9371 8.98071 36.4692 7.75285 37.5333 6.82409C38.5975 5.87958 39.9657 5.40732 41.6379 5.40732C42.0788 5.40732 42.7629 5.44667 43.6902 5.52538C44.6327 5.60409 45.4232 5.64345 46.0617 5.64345C46.8674 5.64345 47.3919 5.70641 47.6352 5.83235C47.8784 5.94254 48 6.15506 48 6.46989ZM40.2013 8.3353C40.2013 9.54742 40.4141 10.7989 40.8398 12.0897C41.2655 13.3648 41.7367 14.0024 42.2536 14.0024C42.7857 14.0024 43.0517 13.4514 43.0517 12.3495C43.0517 11.3105 42.8389 10.1063 42.4132 8.73672C42.0028 7.36718 41.5315 6.68241 40.9994 6.68241C40.4673 6.68241 40.2013 7.23337 40.2013 8.3353Z" fill="#755DFF"/>
</svg>
