<svg width="80" height="70" viewBox="0 0 80 70" fill="none" xmlns="http://www.w3.org/2000/svg">
<path d="M25.6274 66.674L27.4071 67.6544C27.5955 67.7586 27.7107 67.9964 27.6522 68.2214C27.6065 68.3988 27.4547 68.536 27.0578 68.5433C26.178 68.5616 22.2839 67.9123 22.2839 67.9123V68.4135L20.464 68.4171C20.464 68.4171 20.3506 65.8345 20.9011 65.4979L25.6274 66.674Z" fill="#262722"/>
<path d="M23.2423 65.0754L25.6256 66.674C25.6256 66.674 25.3183 67.5538 23.9593 66.9667C22.6003 66.3795 20.8993 65.4961 20.8993 65.4961L21.1481 64.8267L23.2423 65.0754Z" fill="#E8AF94"/>
<path d="M21.148 64.8266L20.9011 57.4135L23.2643 57.5689V65.8454L21.148 64.8266Z" fill="#E8AF94"/>
<path d="M5.38351 66.674L3.60383 67.6544C3.41544 67.7586 3.30021 67.9964 3.35874 68.2214C3.40447 68.3988 3.55628 68.536 3.95319 68.5433C4.83296 68.5616 8.72704 67.9123 8.72704 67.9123V68.4354L10.5214 68.4135C10.5214 68.4135 10.6604 65.8363 10.1098 65.4979L5.38351 66.674Z" fill="#262722"/>
<path d="M7.76862 65.0754L5.38353 66.674C5.38353 66.674 5.69081 67.5538 7.0498 66.9667C8.4088 66.3795 10.1098 65.4961 10.1098 65.4961L9.86107 64.8267L7.76862 65.0754Z" fill="#E8AF94"/>
<path d="M9.86284 64.8266L11.7285 57.4135L9.36534 57.5689L7.54176 66.0137L9.86284 64.8266Z" fill="#E8AF94"/>
<path d="M21.9767 23.8684C21.9767 23.8684 25.2032 28.4923 25.1172 33.546C25.0294 38.6015 23.974 62.5805 23.974 62.5805H20.133L18.9167 31.245L18.41 31.2139L11.4706 62.5933L7.8856 62.2129L12.0522 33.8386C12.3375 32.0151 12.8259 30.2281 13.5356 28.5252C14.1428 27.0693 14.9751 25.4121 16.014 24.1281L21.9767 23.8684Z" fill="#0EB16A"/>
<path d="M15.3151 26.9102L14.1317 30.3195" stroke="#86E0B9" stroke-width="0.9519" stroke-miterlimit="10" stroke-linecap="round" stroke-linejoin="round"/>
<path d="M13.5154 4.4146C13.5154 4.4146 13.2465 7.10698 10.1919 9.27259C6.93621 11.5827 9.36338 17.9753 15.3426 17.6771C21.8394 17.3534 24.5355 9.00738 20.2957 2.66785L13.5154 4.4146Z" fill="#A74B22"/>
<path d="M18.0716 12.3563L14.1336 13.4629C12.9977 13.783 12.0869 14.9883 12.4307 16.1169L15.9755 24.1391L21.9748 23.8666L24.0837 15.1749C24.2648 13.9933 23.0393 12.9215 21.8522 12.7862L18.0716 12.3563Z" fill="#755DFF"/>
<path d="M14.1354 13.4629L18.0734 12.3563L21.8559 12.788L21.7772 12.8538C19.6189 14.6609 16.5516 14.906 14.1354 13.4629Z" fill="#E0A78F"/>
<path d="M26.9133 23.1057L22.4303 27.0839L23.215 28.4374L28.3912 25.2823C29.2289 24.7482 29.6112 23.691 29.2381 22.771C29.2198 22.7252 29.1997 22.6813 29.1777 22.6356L28.5778 21.3845L26.9133 23.1057Z" fill="#E0A78F"/>
<path d="M25.5323 15.2426L29.2618 21.6223C29.4447 22.0796 29.2033 22.5954 28.7369 22.749L26.9389 23.3453C26.6645 23.4368 26.3627 23.3618 26.1652 23.1514C25.5031 22.4472 22.5967 20.2304 22.6881 17.5216L21.6547 15.6706L21.8541 12.788C23.7819 13.0184 25.1738 14.3628 25.5323 15.2426Z" fill="#755DFF"/>
<path d="M23.0943 19.4293L23.9284 16.6875" stroke="black" stroke-width="0.5" stroke-miterlimit="10" stroke-linecap="round" stroke-linejoin="round"/>
<path d="M23.9283 27.2797C23.8295 27.3675 23.2442 29.9721 23.2442 29.9721L22.4303 27.0858L23.9283 27.2797Z" fill="#E0A78F"/>
<path d="M22.3278 26.7493L23.3484 30.3361" stroke="#86E0B9" stroke-width="0.9519" stroke-miterlimit="10" stroke-linecap="round" stroke-linejoin="round"/>
<path d="M11.0901 16.0711L8.11601 22.835C7.98798 23.3087 8.28429 23.7934 8.76533 23.894L10.1682 24.2105C10.4517 24.269 10.6255 24.9421 10.7992 24.7098C11.3754 23.9343 14.5781 20.6877 14.1757 18.0081L14.9896 16.051L14.1336 13.4611C12.246 13.9147 11.3461 15.1584 11.0901 16.0711Z" fill="#755DFF"/>
<path d="M13.9909 19.9525L12.8496 17.3241" stroke="black" stroke-width="0.5" stroke-miterlimit="10" stroke-linecap="round" stroke-linejoin="round"/>
<path d="M4.18349 15.5773L2.78609 16.1498L8.41595 24.2031C8.86224 25.0994 10.0255 25.3481 10.7974 24.7116C11.4394 24.183 11.5528 23.2429 11.0535 22.5771L4.18349 15.5773Z" fill="#E0A78F"/>
<path d="M4.24754 15.9815L4.53104 15.559C4.73955 15.2481 4.82918 14.875 4.78345 14.5037L4.65725 13.4702C4.65725 13.4702 4.60055 12.9233 3.56713 13.2873C2.5337 13.6513 2.47335 13.6714 2.55382 13.9842C2.55382 13.9842 2.84282 14.3793 3.54701 14.3208L4.24754 15.9815Z" fill="#E0A78F"/>
<path d="M2.93608 16.4278C2.93608 16.4278 1.76182 16.073 1.31553 14.2476C1.26431 14.0372 1.3265 13.8141 1.47649 13.6586C1.71061 13.4209 2.3965 12.8008 2.87938 12.9983L3.82134 13.7885L4.24569 15.9797L2.93608 16.4278Z" fill="#E0A78F"/>
<path d="M3.90551 13.4355L3.85063 10.3517C3.84698 10.1688 3.69699 10.0206 3.51409 10.0206C3.33118 10.0206 3.1812 10.1688 3.17937 10.3517L3.14644 12.7002L2.90867 12.8008L1.56248 10.7248C1.46736 10.5785 1.26983 10.5419 1.12899 10.6425C1.00461 10.7303 0.964372 10.8968 1.03388 11.0321L2.55383 13.9842L3.90551 13.4355Z" fill="#E0A78F"/>
<path d="M3.9018 13.1923C3.9018 13.1923 2.43123 13.366 2.55195 13.9842C2.55195 13.9842 2.61963 14.4507 3.54513 14.3208C3.54513 14.3208 3.01288 14.6025 3.12628 15.2426" stroke="#B9635E" stroke-width="0.6407" stroke-miterlimit="10" stroke-linecap="round" stroke-linejoin="round"/>
<path d="M15.2686 8.21719C15.6446 7.7535 15.5735 7.0728 15.1098 6.6968C14.6461 6.32081 13.9654 6.3919 13.5894 6.8556C13.2135 7.31929 13.2845 7.99999 13.7482 8.37599C14.2119 8.75198 14.8926 8.68089 15.2686 8.21719Z" fill="#E0A78F"/>
<path d="M13.8043 7.43617C13.8043 7.43617 14.2159 7.19108 14.6859 7.90075" stroke="#B9635E" stroke-width="0.6612" stroke-miterlimit="10" stroke-linecap="round" stroke-linejoin="round"/>
<path d="M19.4434 7.11237C19.4928 7.70864 20.0177 8.14945 20.6121 8.10006C21.2084 8.05068 21.6492 7.52573 21.5998 6.93129C21.5505 6.33501 21.0255 5.89421 20.4311 5.94359C19.8348 5.99481 19.3922 6.51792 19.4434 7.11237Z" fill="#E0A78F"/>
<path d="M21.1132 6.80137C21.1132 6.80137 20.6614 6.64224 20.3395 7.43057" stroke="#B9635E" stroke-width="0.6612" stroke-miterlimit="10" stroke-linecap="round" stroke-linejoin="round"/>
<path d="M17.5156 8.12164C19.5641 7.94876 21.0939 6.25896 20.9326 4.34738C20.7713 2.43579 18.9798 1.02629 16.9314 1.19917C14.8829 1.37206 13.353 3.06185 13.5144 4.97344C13.6757 6.88503 15.4671 8.29453 17.5156 8.12164Z" fill="#A74B22"/>
<path d="M18.6971 9.34387C18.6971 9.34387 18.2672 9.81211 17.8502 9.95295C17.4332 10.0938 16.9924 9.80662 16.9869 9.80297C16.9814 9.79931 16.4583 9.47191 16.4583 9.47191L16.5589 13.0368L16.6192 13.0916C17.4076 13.8068 18.4483 13.73 19.1123 12.9069L19.2092 12.7862L18.6971 9.34387Z" fill="#E0A78F"/>
<path d="M16.0833 9.03111C16.0833 9.03111 16.857 11.0541 17.9215 10.9443C18.7977 10.8529 18.8781 8.89941 18.8781 8.89941L16.0833 9.03111Z" fill="#CD998D"/>
<path d="M20.2152 5.0182C20.3194 6.18331 20.2353 7.20576 20.1256 7.93555C20.0176 8.64889 19.5842 9.18114 18.9422 9.63475L18.8251 9.71706C18.1465 10.1963 17.2228 10.2896 16.4601 9.95301C15.6919 9.61463 15.1304 9.12627 14.9054 8.39099C14.4957 7.05211 14.3293 5.54497 14.3293 5.54497C14.3293 5.54497 13.8189 2.41178 16.9979 2.18315C20.1749 1.95634 20.2152 5.0182 20.2152 5.0182Z" fill="#E0A78F"/>
<path d="M17.1533 6.90027L17.1917 7.35571L17.5027 7.3301" stroke="#B9635E" stroke-width="0.6612" stroke-miterlimit="10" stroke-linecap="round" stroke-linejoin="round"/>
<path d="M14.8579 5.4443L16.5242 5.15165C16.5242 5.15165 16.3376 4.72913 15.6645 4.85717C14.9749 4.98703 14.8579 5.4443 14.8579 5.4443Z" fill="black"/>
<path d="M19.4725 5.05472L17.7806 5.04557C17.7806 5.04557 17.894 4.59745 18.5781 4.61025C19.2786 4.62306 19.4725 5.05472 19.4725 5.05472Z" fill="black"/>
<path d="M16.2478 6.35515C16.2606 6.49782 16.1545 6.62219 16.0119 6.63317C15.8692 6.64414 15.7448 6.53989 15.7339 6.39722C15.7211 6.25455 15.8271 6.13017 15.9698 6.1192C16.1106 6.10823 16.235 6.21248 16.2478 6.35515Z" fill="#1E0B02"/>
<path d="M18.7683 6.143C18.7811 6.28567 18.675 6.41005 18.5324 6.42102C18.3897 6.43382 18.2653 6.32774 18.2544 6.18507C18.2416 6.0424 18.3476 5.91803 18.4903 5.90705C18.6311 5.89425 18.7574 6.00034 18.7683 6.143Z" fill="#1E0B02"/>
<path d="M16.46 8.06904C16.46 8.06904 17.2063 8.39827 18.3238 7.91174" stroke="black" stroke-width="0.4" stroke-miterlimit="10" stroke-linecap="round" stroke-linejoin="round"/>
<path d="M20.1548 4.30113C20.1548 4.30113 15.4962 4.86997 15.4633 2.11357C15.4615 2.11357 19.436 0.615566 20.1548 4.30113Z" fill="#A74B22"/>
<path d="M14.1994 4.80599C14.1994 4.80599 15.7834 3.98108 15.6407 2.29834C15.6407 2.29834 13.9744 2.63489 14.1994 4.80599Z" fill="#A74B22"/>
<path d="M55.1869 61.7996L54.832 66.6796L52.7268 66.7509L52.5859 60.7369L55.1869 61.7996Z" fill="#E8B499"/>
<path d="M54.929 66.1253C54.929 66.1253 53.4584 67.049 52.6829 65.6296L47 68.6458L55.8527 68.5909L54.929 66.1253Z" fill="#B04E4E"/>
<path d="M55.8528 68.5924L47.0001 68.6466L47.0048 69.4203L55.8575 69.3661L55.8528 68.5924Z" fill="#FFB299"/>
<path d="M52.0099 67.1056C51.9861 67.0965 51.9642 67.08 51.9477 67.0581C51.6038 66.6081 51.2581 66.385 51.2545 66.3831C51.1868 66.3392 51.1685 66.2514 51.2142 66.1874C51.26 66.1216 51.3532 66.107 51.4191 66.1472C51.4356 66.1563 51.8105 66.3978 52.1873 66.8916C52.2349 66.9556 52.2202 67.0434 52.1544 67.0892C52.1123 67.1203 52.0556 67.1239 52.0099 67.1056Z" fill="#FFB299"/>
<path d="M51.2855 67.4678C51.2618 67.4586 51.2398 67.4422 51.2233 67.4202C50.8795 66.9703 50.5338 66.7471 50.5301 66.7453C50.4625 66.7014 50.4442 66.6136 50.4899 66.5496C50.5356 66.4856 50.6289 66.4673 50.6947 66.5093C50.7112 66.5185 51.0862 66.7599 51.463 67.2538C51.5105 67.3178 51.4959 67.4056 51.43 67.4513C51.388 67.4824 51.3331 67.4861 51.2855 67.4678Z" fill="#FFB299"/>
<path d="M50.5631 67.8281C50.5393 67.819 50.5173 67.8025 50.5009 67.7806C50.157 67.3306 49.8113 67.1075 49.8076 67.1056C49.74 67.0618 49.7217 66.974 49.7674 66.9099C49.8131 66.8459 49.9064 66.8276 49.9723 66.8697C49.9887 66.8788 50.3637 67.1203 50.7405 67.6141C50.788 67.6781 50.7734 67.7659 50.7075 67.8117C50.6655 67.8446 50.6088 67.8482 50.5631 67.8281Z" fill="#FFB299"/>
<path d="M60.9795 61.7996L61.3344 66.6796L63.4396 66.7509L63.5805 60.7369L60.9795 61.7996Z" fill="#E8B499"/>
<path d="M61.238 66.1253C61.238 66.1253 62.7085 67.049 63.4841 65.6296L69.167 68.6458L60.3143 68.5909L61.238 66.1253Z" fill="#B04E4E"/>
<path d="M60.316 68.5911L60.3113 69.3647L69.1639 69.4189L69.1687 68.6452L60.316 68.5911Z" fill="#FFB399"/>
<path d="M64.1567 67.1056C64.1805 67.0965 64.2024 67.08 64.2189 67.0581C64.5627 66.6081 64.9084 66.385 64.9121 66.3831C64.9798 66.3392 64.9981 66.2514 64.9523 66.1874C64.9066 66.1216 64.8133 66.107 64.7475 66.1472C64.731 66.1563 64.3561 66.3978 63.9793 66.8916C63.9317 66.9556 63.9463 67.0434 64.0122 67.0892C64.0561 67.1203 64.111 67.1239 64.1567 67.1056Z" fill="#FFB399"/>
<path d="M64.881 67.4678C64.9047 67.4586 64.9267 67.4422 64.9431 67.4202C65.287 66.9703 65.6327 66.7471 65.6364 66.7453C65.704 66.7014 65.7223 66.6136 65.6766 66.5496C65.6309 66.4856 65.5376 66.4673 65.4717 66.5093C65.4553 66.5185 65.0803 66.7599 64.7035 67.2538C64.656 67.3178 64.6706 67.4056 64.7365 67.4513C64.7785 67.4824 64.8352 67.4861 64.881 67.4678Z" fill="#FFB399"/>
<path d="M65.6034 67.8281C65.6272 67.819 65.6492 67.8025 65.6656 67.7806C66.0095 67.3306 66.3552 67.1075 66.3588 67.1056C66.4265 67.0618 66.4448 66.974 66.3991 66.9099C66.3534 66.8459 66.2601 66.8276 66.1942 66.8697C66.1778 66.8788 65.8028 67.1203 65.426 67.6141C65.3785 67.6781 65.3931 67.7659 65.4589 67.8117C65.5028 67.8446 65.5577 67.8482 65.6034 67.8281Z" fill="#FFB399"/>
<path d="M63.5677 30.0123C63.5677 30.0123 64.2426 34.2612 64.2225 49.0529L64.7017 64.3676H60.076L59.3718 49.2083L58.3933 35.6715H56.5678V30.0123H63.5677Z" fill="#262722"/>
<path d="M52.7762 30.0123C52.7762 30.0123 52.1013 34.4313 52.1214 49.223L51.6422 64.3676H56.2679L56.7947 49.2083L57.9506 35.6715H59.776V30.0123H52.7762Z" fill="#262722"/>
<path d="M52.0557 27.6638L50.0528 36.9792L48.7304 36.9116C48.7304 36.9116 49.1548 31.1482 49.645 27.2962C49.7236 26.6853 50.5101 26.1859 51.1137 26.3121C51.677 26.4292 52.1745 27.0986 52.0557 27.6638Z" fill="#E8B499"/>
<path d="M49.8991 36.3629C49.8991 36.3629 50.5503 37.3835 50.1479 38.684L50.446 39.9552C50.4918 40.1527 50.3966 40.3594 50.2211 40.4399C50.0308 40.5277 49.815 40.4362 49.7327 40.235L49.4364 39.518L49.4053 39.7924C49.3559 40.2277 49.4437 40.6667 49.654 41.038L50.254 42.0915C50.3217 42.2122 50.3235 42.3641 50.2576 42.4884C50.1314 42.728 49.8223 42.761 49.6632 42.5488L48.7121 41.2776C48.3444 40.7856 48.1926 40.1417 48.2969 39.5107L48.8602 36.1215L49.8991 36.3629Z" fill="#E8B499"/>
<path d="M49.6431 27.2943L50.8192 19.3324L53.55 20.2213L52.0282 27.7735L49.6431 27.2943Z" fill="#E8B499"/>
<path d="M53.7602 16.0273C53.7602 16.0273 51.9165 16.2468 50.9691 18.6905C50.0161 21.1469 48.8529 23.7094 48.8529 23.7094L52.981 26.0085L53.7602 16.0273Z" fill="#00D1C3"/>
<path d="M65.9473 29.0026L74.9627 24.0934L74.4177 22.1765C74.4177 22.1765 68.1348 24.8524 64.7255 26.7144C64.1841 27.0089 64.0067 28.1027 64.345 28.6185C64.6615 29.1013 65.4644 29.319 65.9473 29.0026Z" fill="#E8B499"/>
<path d="M66.6917 27.3291L64.8261 19.3324L62.0953 20.2213L64.2408 28.4045L66.6917 27.3291Z" fill="#E8B499"/>
<path d="M62.2343 15.9633C62.2343 15.9633 64.2298 16.1992 65.2431 18.6886C66.2381 21.1285 67.2258 23.3801 67.2258 23.3801L63.2494 25.8439L62.2343 15.9633Z" fill="#00D1C3"/>
<path d="M63.1616 16.3363C62.4538 15.8973 61.3033 15.7876 61.3033 15.7876L58.1061 16.1095L54.9089 15.7876C54.9089 15.7876 53.7584 15.8973 53.0506 16.3363L53.025 23.7001L51.5965 33.8222L64.7017 33.8935L63.1982 23.8318L63.1616 16.3363Z" fill="#00D1C3"/>
<path d="M53.7602 16.0272L57.5281 15.0377H58.8267L62.2343 15.9651C60.4912 17.5984 56.1673 18.9373 53.9541 16.1041L53.7602 16.0272Z" fill="#E8B499"/>
<path d="M52.7506 25.8456L52.9793 23.488L52.7086 19.9469" stroke="black" stroke-width="0.5" stroke-miterlimit="10" stroke-linecap="round" stroke-linejoin="round"/>
<path d="M63.4305 25.6646L63.2201 23.4881L63.5695 19.9141" stroke="black" stroke-width="0.5" stroke-miterlimit="10" stroke-linecap="round" stroke-linejoin="round"/>
<path d="M63.703 12.6354C63.6664 12.3318 63.6902 12.0227 63.767 11.73C64.1548 10.2466 63.7121 8.98277 62.9293 8.03714C62.2215 7.18297 62.0459 5.91909 62.0459 5.91909C61.5264 4.20708 59.765 3.02002 58.1628 3.02002C56.5605 3.02002 54.8064 4.13941 54.287 5.85141C54.287 5.85141 54.0529 7.20675 53.3981 8.03897C52.6408 9.00106 52.1726 10.2466 52.5603 11.7318C52.6372 12.0245 52.6609 12.3354 52.6244 12.6372C52.5969 12.8604 52.5366 13.0927 52.4085 13.2536H63.9188C63.7908 13.0908 63.7304 12.8604 63.703 12.6354Z" fill="#DA4412"/>
<path d="M56.1673 9.37687C56.1856 9.99875 55.6954 10.5182 55.0736 10.5347C54.4517 10.553 53.9322 10.0628 53.9158 9.44089C53.8975 8.819 54.3877 8.29955 55.0095 8.28309C55.6314 8.2648 56.149 8.75499 56.1673 9.37687Z" fill="#E8B499"/>
<path d="M54.4004 9.2507C54.4004 9.2507 54.8485 9.03305 55.2747 9.8104" stroke="#C47268" stroke-width="0.6887" stroke-miterlimit="10" stroke-linecap="round" stroke-linejoin="round"/>
<path d="M61.4094 10.5365C62.0316 10.5365 62.5361 10.032 62.5361 9.40978C62.5361 8.78752 62.0316 8.28308 61.4094 8.28308C60.7871 8.28308 60.2827 8.78752 60.2827 9.40978C60.2827 10.032 60.7871 10.5365 61.4094 10.5365Z" fill="#E8B499"/>
<path d="M62.0441 9.23238C62.0441 9.23238 61.5905 9.02753 61.1844 9.81768" stroke="#C47268" stroke-width="0.6887" stroke-miterlimit="10" stroke-linecap="round" stroke-linejoin="round"/>
<path d="M61.6382 8.0831C62.0911 6.1816 60.9167 4.27298 59.0152 3.82009C57.1137 3.36719 55.2051 4.54152 54.7522 6.44302C54.2993 8.34452 55.4736 10.2531 57.3751 10.706C59.2766 11.1589 61.1853 9.9846 61.6382 8.0831Z" fill="#DA4412"/>
<path d="M59.3133 11.6595C59.3133 11.6595 58.8249 12.1076 58.3805 12.2173C57.936 12.3271 57.5025 11.9905 57.497 11.9869C57.4915 11.9832 56.9776 11.5973 56.9776 11.5973L56.7691 15.3066L56.8276 15.3688C57.583 16.1791 58.6695 16.1919 59.4322 15.3963L59.5438 15.2792L59.3133 11.6595Z" fill="#E8B499"/>
<path d="M56.6264 11.1052C56.6264 11.1052 57.2519 13.2727 58.3677 13.2507C59.2859 13.2324 59.5401 11.2131 59.5401 11.2131L56.6264 11.1052Z" fill="#D99687"/>
<path d="M61.2668 7.30271C61.2722 8.5227 61.0967 9.57441 60.9192 10.3225C60.7455 11.0541 60.248 11.5681 59.542 11.9833L59.4139 12.0583C58.6677 12.4972 57.7019 12.5119 56.9392 12.0967C56.171 11.6778 55.6314 11.1236 55.4631 10.339C55.1559 8.91412 55.1156 7.33381 55.1156 7.33381C55.1156 7.33381 54.8595 4.036 58.1775 4.0799C61.4936 4.12197 61.2668 7.30271 61.2668 7.30271Z" fill="#E8B499"/>
<path d="M57.9233 9.10791V9.59078H58.2488" stroke="#C47268" stroke-width="0.6887" stroke-miterlimit="10" stroke-linecap="round" stroke-linejoin="round"/>
<path d="M55.6698 7.27521L57.4238 7.11791C57.4238 7.11791 57.2665 6.66247 56.5569 6.73747C55.8307 6.81063 55.6698 7.27521 55.6698 7.27521Z" fill="black"/>
<path d="M60.493 7.27521L58.7389 7.11791C58.7389 7.11791 58.8962 6.66247 59.6059 6.73747C60.3302 6.81063 60.493 7.27521 60.493 7.27521Z" fill="black"/>
<path d="M57.1275 10.0371H59.0444C59.0444 10.0371 58.9712 10.5364 58.0512 10.5364C57.2976 10.5364 57.1275 10.0371 57.1275 10.0371Z" fill="white"/>
<path d="M57.2172 8.4586C57.2172 8.4586 56.7636 8.0873 56.3648 8.4586" stroke="#1E0B02" stroke-width="0.9565" stroke-miterlimit="10" stroke-linecap="round" stroke-linejoin="round"/>
<path d="M59.7815 8.45864C59.7815 8.45864 59.4266 8.07819 58.9511 8.45864" stroke="#1E0B02" stroke-width="0.9565" stroke-miterlimit="10" stroke-linecap="round" stroke-linejoin="round"/>
<path opacity="0.23" d="M56.3667 7.24595L57.6526 8.9927C57.6526 8.9927 57.2648 9.73347 56.6466 9.65117L55.3479 7.94831C55.3498 7.94648 55.7009 7.19839 56.3667 7.24595Z" fill="white"/>
<path opacity="0.23" d="M59.5309 7.24595L60.8168 8.9927C60.8168 8.9927 60.429 9.73347 59.8108 9.65117L58.5122 7.94831C58.5122 7.94648 58.8633 7.19839 59.5309 7.24595Z" fill="white"/>
<path d="M57.7549 8.45859C57.7549 9.15363 57.1916 9.71699 56.4965 9.71699C55.8015 9.71699 55.2381 9.15363 55.2381 8.45859C55.2381 7.76355 55.8015 7.2002 56.4965 7.2002C57.1916 7.2002 57.7549 7.76355 57.7549 8.45859Z" stroke="white" stroke-width="0.4927" stroke-miterlimit="10"/>
<path d="M60.9211 8.45859C60.9211 9.15363 60.3577 9.71699 59.6627 9.71699C58.9676 9.71699 58.4043 9.15363 58.4043 8.45859C58.4043 7.76355 58.9676 7.2002 59.6627 7.2002C60.3596 7.2002 60.9211 7.76355 60.9211 8.45859Z" stroke="white" stroke-width="0.4927" stroke-miterlimit="10"/>
<path d="M57.7549 8.45855C57.7549 8.45855 58.1134 8.32686 58.406 8.45855" stroke="white" stroke-width="0.4927" stroke-miterlimit="10"/>
<path d="M54.7937 6.55275C54.7937 6.55275 57.7513 5.9894 58.3622 3.78172C58.3622 3.78172 55.2162 2.66599 54.7937 6.55275Z" fill="#DA4412"/>
<path d="M61.2668 6.55275C61.2668 6.55275 58.3092 5.9894 57.6983 3.78172C57.6983 3.78172 60.8443 2.66599 61.2668 6.55275Z" fill="#DA4412"/>
<path fill-rule="evenodd" clip-rule="evenodd" d="M76.4929 21.1704C75.8881 21.3936 75.3006 21.6676 74.7111 21.9311C74.8394 21.6902 74.8881 21.3964 74.6101 21.2848C74.296 21.1585 73.9323 21.588 73.7374 21.7819C73.4906 22.0271 73.2404 22.2916 73.0307 22.5722L73.029 22.5701L70.1033 22.6888L71.3338 28.1013L75.0571 24.5647L75.0566 24.5642C75.7045 24.146 76.2485 23.5636 76.8166 23.0493C77.6749 22.272 78.2682 20.5156 76.4929 21.1704Z" fill="#EFDC34"/>
<mask id="mask0" mask-type="alpha" maskUnits="userSpaceOnUse" x="70" y="20" width="8" height="9">
<path fill-rule="evenodd" clip-rule="evenodd" d="M76.524 21.1225C75.9189 21.3378 75.3324 21.6054 74.7437 21.8623C74.8679 21.6189 74.9109 21.3197 74.6283 21.1999C74.309 21.0642 73.9514 21.4955 73.7589 21.6895C73.5153 21.9348 73.2685 22.1998 73.0631 22.4821L73.0613 22.48L70.1143 22.5398L71.4683 28.0959L75.1478 24.5605L75.1472 24.56C75.7916 24.1463 76.3278 23.5626 76.8898 23.049C77.7387 22.2728 78.3 20.4907 76.524 21.1225Z" fill="white"/>
</mask>
<g mask="url(#mask0)">
<path fill-rule="evenodd" clip-rule="evenodd" d="M71.4683 28.0958L71.413 27.8687C72.6096 26.9191 73.673 25.7283 74.5968 24.6767C75.6157 23.5175 76.5508 22.299 77.4081 21.0298C77.4916 21.0612 77.5549 21.1105 77.6003 21.1733C77.8906 21.5744 77.4537 22.5334 76.8898 23.0489C76.4608 23.4411 76.0468 23.874 75.5882 24.2411C75.5178 24.2972 75.4466 24.3519 75.374 24.4047C75.2999 24.4586 75.2243 24.5105 75.1472 24.5599L75.1478 24.5604L73.6665 25.9837L71.4683 28.0958Z" fill="#CAB70E"/>
</g>
<path fill-rule="evenodd" clip-rule="evenodd" d="M71.8069 14.1582C71.9837 14.5398 72.1394 14.9297 72.2691 15.3275C72.4037 15.7239 72.5057 16.1297 72.587 16.5394C72.6687 16.9491 72.7159 17.3642 72.7447 17.7811C72.7685 18.198 72.7692 18.617 72.742 19.0361L72.4463 19.0087C72.505 18.6048 72.5353 18.1965 72.531 17.7876C72.5291 17.3786 72.4923 16.9692 72.4286 16.5638C72.368 16.1574 72.2676 15.757 72.1444 15.3632C72.0171 14.9704 71.8602 14.5863 71.6723 14.2158L71.8069 14.1582Z" fill="#167F57"/>
<path fill-rule="evenodd" clip-rule="evenodd" d="M72.1339 13.4514C72.0528 13.7918 71.8238 14.2377 71.7187 14.3533C71.6705 14.2075 71.6464 13.712 71.7143 13.3688C71.7815 13.0304 71.9316 12.8712 72.0367 12.8916C72.1416 12.9121 72.2135 13.1155 72.1339 13.4514Z" fill="#167F57"/>
<path fill-rule="evenodd" clip-rule="evenodd" d="M72.8275 14.9144C72.7468 15.2552 72.5177 15.7011 72.4125 15.8166C72.3639 15.6709 72.3402 15.175 72.4082 14.8322C72.475 14.4939 72.6255 14.3343 72.7307 14.3551C72.8356 14.3755 72.9072 14.5785 72.8275 14.9144Z" fill="#167F57"/>
<path fill-rule="evenodd" clip-rule="evenodd" d="M71.5657 15.2328C71.8594 15.4545 72.1969 15.8623 72.2669 16.0117C72.1097 15.9962 71.6282 15.809 71.327 15.5983C71.0304 15.3906 70.9356 15.1799 70.9956 15.088C71.0552 14.9968 71.2764 15.0146 71.5657 15.2328Z" fill="#167F57"/>
<path fill-rule="evenodd" clip-rule="evenodd" d="M72.3663 14.0275C72.1824 14.1787 71.8755 14.3306 71.7714 14.3533C71.8063 14.2573 71.9984 13.9842 72.1772 13.8268C72.3527 13.6717 72.4992 13.6427 72.547 13.693C72.5941 13.7433 72.5481 13.8781 72.3663 14.0275Z" fill="#167F57"/>
<path fill-rule="evenodd" clip-rule="evenodd" d="M71.7717 17.0122C72.0265 17.0376 72.3714 17.1683 72.4651 17.2381C72.3643 17.2936 72.0069 17.3697 71.7517 17.3552C71.5 17.3408 71.37 17.2397 71.3751 17.1542C71.3798 17.0684 71.5203 16.988 71.7717 17.0122Z" fill="#167F57"/>
<path fill-rule="evenodd" clip-rule="evenodd" d="M71.0703 13.5745C71.3639 13.7962 71.7014 14.2042 71.7714 14.3533C71.6138 14.3374 71.1324 14.1504 70.8312 13.94C70.5347 13.7323 70.4403 13.5211 70.4999 13.4295C70.5599 13.3383 70.7806 13.3561 71.0703 13.5745Z" fill="#167F57"/>
<path fill-rule="evenodd" clip-rule="evenodd" d="M73.2553 16.4815C73.107 16.7967 72.7919 17.1867 72.6658 17.28C72.6483 17.1294 72.7265 16.6444 72.8631 16.3244C72.9976 16.0089 73.1772 15.882 73.2757 15.9211C73.3735 15.9605 73.4018 16.1704 73.2553 16.4815Z" fill="#167F57"/>
<path fill-rule="evenodd" clip-rule="evenodd" d="M71.9301 16.5644C72.1736 16.8131 72.4248 17.2332 72.4651 17.3776C72.316 17.3345 71.8852 17.0814 71.6332 16.8412C71.3844 16.6044 71.3317 16.4011 71.4059 16.332C71.4805 16.2625 71.6908 16.3191 71.9301 16.5644Z" fill="#167F57"/>
<path fill-rule="evenodd" clip-rule="evenodd" d="M74.5464 13.5087C74.4316 13.9452 74.3258 14.3841 74.2316 14.8259C74.1357 15.2667 74.0534 15.711 73.9742 16.1554C73.8947 16.6001 73.8377 17.048 73.7835 17.496C73.7283 17.9443 73.6776 18.3926 73.6309 18.8409L73.3571 18.8067C73.4427 18.3602 73.7967 16.3521 73.8398 16.1301C73.9247 15.6851 74.0206 15.2425 74.1151 14.8C74.212 14.3578 74.3108 13.916 74.4128 13.4752L74.5464 13.5087Z" fill="#167F57"/>
<path fill-rule="evenodd" clip-rule="evenodd" d="M75.1654 13.161C74.912 13.3991 74.4908 13.636 74.3482 13.6704C74.3965 13.5194 74.6626 13.0889 74.9082 12.8414C75.1501 12.5977 75.3505 12.5536 75.4151 12.634C75.4794 12.714 75.4151 12.927 75.1654 13.161Z" fill="#167F57"/>
<path fill-rule="evenodd" clip-rule="evenodd" d="M74.4196 12.7289C74.5281 13.0497 74.5658 13.5256 74.5372 13.6704C74.421 13.5712 74.1435 13.1705 74.0233 12.8538C73.9045 12.5419 73.9485 12.3398 74.0478 12.3089C74.1472 12.2777 74.3129 12.4132 74.4196 12.7289Z" fill="#167F57"/>
<path fill-rule="evenodd" clip-rule="evenodd" d="M74.8758 14.5116C74.6233 14.7508 74.1968 14.9973 74.0509 15.0361C74.0951 14.8889 74.3534 14.4644 74.5976 14.2161C74.8385 13.971 75.0436 13.9203 75.1139 13.9944C75.1834 14.0685 75.1252 14.2759 74.8758 14.5116Z" fill="#167F57"/>
<path fill-rule="evenodd" clip-rule="evenodd" d="M73.8991 14.0196C74.0127 14.3631 74.0674 14.8777 74.0465 15.0362C73.9346 14.9336 73.6613 14.5103 73.5365 14.1716C73.4136 13.8379 73.4464 13.617 73.5374 13.5789C73.6279 13.5409 73.7868 13.6816 73.8991 14.0196Z" fill="#167F57"/>
<path fill-rule="evenodd" clip-rule="evenodd" d="M73.5465 14.6346C73.7517 14.7431 73.9963 14.9552 74.0509 15.0361C73.9474 15.0365 73.6225 14.9588 73.4133 14.8569C73.2077 14.7566 73.1331 14.6421 73.1666 14.5866C73.1998 14.5307 73.3448 14.5277 73.5465 14.6346Z" fill="#167F57"/>
<path fill-rule="evenodd" clip-rule="evenodd" d="M74.5788 16.2674C74.326 16.507 73.8997 16.7535 73.7535 16.7923C73.7976 16.645 74.0556 16.22 74.3006 15.9721C74.5411 15.7271 74.7467 15.6764 74.8164 15.7504C74.8861 15.8244 74.828 16.0317 74.5788 16.2674Z" fill="#167F57"/>
<path fill-rule="evenodd" clip-rule="evenodd" d="M73.7007 15.7753C73.8146 16.1185 73.8689 16.6341 73.8484 16.7922C73.7364 16.6896 73.4628 16.2662 73.3383 15.9277C73.2154 15.594 73.2482 15.373 73.3389 15.3349C73.4297 15.2968 73.5887 15.4372 73.7007 15.7753Z" fill="#167F57"/>
<path fill-rule="evenodd" clip-rule="evenodd" d="M74.3803 16.8439C74.1248 16.8782 73.76 16.8415 73.6545 16.8021C73.7436 16.7327 74.0808 16.5898 74.3355 16.5461C74.5855 16.5036 74.7327 16.5617 74.7439 16.6367C74.7552 16.7108 74.6318 16.8103 74.3803 16.8439Z" fill="#167F57"/>
<path fill-rule="evenodd" clip-rule="evenodd" d="M73.5278 17.2174C73.6227 17.469 73.6682 17.8467 73.6508 17.9629C73.5573 17.8875 73.3293 17.5773 73.2255 17.3288C73.1234 17.0841 73.1508 16.9219 73.2262 16.8942C73.3019 16.8664 73.4346 16.9692 73.5278 17.2174Z" fill="#167F57"/>
<path fill-rule="evenodd" clip-rule="evenodd" d="M74.0565 17.5317C73.8724 17.6839 73.5623 17.8404 73.4562 17.8654C73.4884 17.7718 73.6762 17.5013 73.8539 17.3434C74.0292 17.1879 74.1784 17.1551 74.2291 17.2025C74.2799 17.2498 74.2379 17.3816 74.0565 17.5317Z" fill="#167F57"/>
<path fill-rule="evenodd" clip-rule="evenodd" d="M74.0768 17.9847C73.8912 17.9992 73.6296 17.9531 73.5553 17.9168C73.6228 17.8665 73.8723 17.7701 74.0571 17.7482C74.2395 17.7268 74.343 17.7795 74.348 17.8388C74.353 17.8981 74.2599 17.9703 74.0768 17.9847Z" fill="#167F57"/>
<path fill-rule="evenodd" clip-rule="evenodd" d="M76.3304 15.6121C75.8133 16.1768 75.3847 16.8152 75.0518 17.4936C74.716 18.1706 74.4728 18.8884 74.3312 19.6214L74.0509 19.5611C74.2548 18.8197 74.541 18.1023 74.9069 17.4249C75.0907 17.0873 75.292 16.7582 75.513 16.4418C75.7332 16.1255 75.9697 15.8194 76.2207 15.5239L76.3304 15.6121Z" fill="#167F57"/>
<path fill-rule="evenodd" clip-rule="evenodd" d="M76.5626 16.4714C76.2132 16.5784 75.6949 16.6162 75.5375 16.5882C75.6448 16.4741 76.0811 16.201 76.4256 16.0822C76.7652 15.9654 76.9853 16.0082 77.0193 16.1058C77.0537 16.203 76.9061 16.3657 76.5626 16.4714Z" fill="#167F57"/>
<path fill-rule="evenodd" clip-rule="evenodd" d="M75.829 15.5434C75.7988 15.9307 75.6476 16.4548 75.5673 16.5971C75.506 16.4429 75.4227 15.8986 75.441 15.5105C75.4595 15.1275 75.5749 14.9307 75.6721 14.9388C75.7693 14.9473 75.8588 15.1619 75.829 15.5434Z" fill="#167F57"/>
<path fill-rule="evenodd" clip-rule="evenodd" d="M76.1919 16.8451C75.939 16.7673 75.6172 16.5849 75.5375 16.5074C75.6522 16.4863 76.0307 16.5067 76.2864 16.5765C76.5386 16.6451 76.6486 16.7553 76.6245 16.8226C76.6012 16.8898 76.4407 16.9219 76.1919 16.8451Z" fill="#167F57"/>
<path fill-rule="evenodd" clip-rule="evenodd" d="M75.779 17.6857C75.4304 17.8172 74.9058 17.8836 74.7447 17.8611C74.8478 17.7337 75.2766 17.4204 75.6208 17.2769C75.9598 17.1348 76.1849 17.1697 76.2249 17.2724C76.2644 17.3747 76.1225 17.556 75.779 17.6857Z" fill="#167F57"/>
<path fill-rule="evenodd" clip-rule="evenodd" d="M75.0406 16.8986C75.0261 17.2863 74.895 17.8167 74.8192 17.9629C74.7501 17.8129 74.6429 17.2747 74.6456 16.8866C74.6483 16.5039 74.7571 16.3014 74.8562 16.3045C74.9553 16.3072 75.0551 16.5159 75.0406 16.8986Z" fill="#167F57"/>
<path fill-rule="evenodd" clip-rule="evenodd" d="M74.4575 17.2356C74.5614 17.4411 74.6439 17.7627 74.6455 17.8653C74.5647 17.8128 74.3513 17.5739 74.2402 17.3722C74.1311 17.1738 74.1314 17.0297 74.1859 16.9956C74.2402 16.9612 74.3548 17.0325 74.4575 17.2356Z" fill="#167F57"/>
<path fill-rule="evenodd" clip-rule="evenodd" d="M75.2479 18.1178C75.0178 18.0468 74.7208 17.8673 74.6455 17.7881C74.7476 17.7604 75.0876 17.7647 75.3202 17.8271C75.5489 17.8888 75.6527 18.0008 75.6346 18.0741C75.6165 18.1467 75.4747 18.1881 75.2479 18.1178Z" fill="#167F57"/>
<path fill-rule="evenodd" clip-rule="evenodd" d="M77.4146 15.5352C76.9726 15.6314 76.3259 15.6393 76.1322 15.5974C76.2752 15.4769 76.8383 15.2016 77.2761 15.0919C77.7067 14.9843 77.9765 15.0468 78.0113 15.1577C78.0461 15.2687 77.8494 15.4406 77.4146 15.5352Z" fill="#167F57"/>
<path fill-rule="evenodd" clip-rule="evenodd" d="M76.6089 14.4967C76.5482 14.952 76.3349 15.558 76.2301 15.7191C76.166 15.5312 76.1014 14.8816 76.1481 14.4244C76.1942 13.9736 76.3449 13.751 76.4603 13.769C76.5758 13.7873 76.669 14.0483 76.6089 14.4967Z" fill="#167F57"/>
<path fill-rule="evenodd" clip-rule="evenodd" d="M75.5525 22.5497C74.9355 23.0618 72.278 23.0717 71.6577 22.5566C71.2266 22.1991 71.0117 21.5264 71.0955 20.7275C71.1096 20.5955 71.1316 20.4624 71.1633 20.3245C71.1733 20.2736 71.1845 20.2222 71.1991 20.1713C71.2426 20.0041 71.3004 19.8336 71.3693 19.6606C71.3909 19.6081 71.4144 19.5553 71.4371 19.5018C71.528 19.3016 71.6361 19.0985 71.7631 18.8954C71.7903 18.8529 71.8179 18.8107 71.8481 18.7667C71.9606 18.5977 72.0858 18.4287 72.2273 18.2629H73.6032C73.6032 18.2556 74.9829 18.2556 74.9829 18.2556C75.1069 18.403 75.2206 18.5508 75.3234 18.7011C75.3823 18.7876 75.4385 18.8745 75.4907 18.961C75.5812 19.1099 75.6621 19.2587 75.731 19.4065C75.7772 19.5018 75.8178 19.5964 75.8539 19.6888C75.9027 19.8123 75.9448 19.9355 75.9791 20.0562C76.0067 20.1456 76.0298 20.2354 76.0484 20.3231C76.079 20.4609 76.1006 20.5955 76.1151 20.7275C76.1967 21.522 75.9821 22.1918 75.5525 22.5497Z" fill="#5FCFFF"/>
<path d="M38.3965 1.33863C38.3965 1.33863 40.0573 0.597856 40.6462 1.99709C41.2132 3.34328 38.9617 4.62728 38.9617 4.62728L38.3965 1.33863Z" fill="#1E0B02"/>
<path d="M35.2908 6.92277C35.3091 7.54465 34.8189 8.0641 34.197 8.08056C33.5752 8.09885 33.0557 7.60867 33.0392 6.98678C33.0209 6.3649 33.5111 5.84545 34.133 5.82899C34.7549 5.8107 35.2725 6.30088 35.2908 6.92277Z" fill="#C67D69"/>
<path d="M33.5239 6.7966C33.5239 6.7966 33.972 6.57894 34.3982 7.3563" stroke="#A8523F" stroke-width="0.7482" stroke-miterlimit="10" stroke-linecap="round" stroke-linejoin="round"/>
<path d="M40.531 8.08055C41.1533 8.08055 41.6577 7.57611 41.6577 6.95385C41.6577 6.33159 41.1533 5.82715 40.531 5.82715C39.9087 5.82715 39.4043 6.33159 39.4043 6.95385C39.4043 7.57611 39.9087 8.08055 40.531 8.08055Z" fill="#C67D69"/>
<path d="M41.1675 6.77828C41.1675 6.77828 40.7139 6.57342 40.3078 7.36358" stroke="#A8523F" stroke-width="0.7482" stroke-miterlimit="10" stroke-linecap="round" stroke-linejoin="round"/>
<path d="M38.7934 9.55121C38.7934 9.55121 38.1587 9.99933 37.5789 10.1109C36.9991 10.2225 36.4375 9.88592 36.4302 9.88227C36.4229 9.87861 35.7535 9.49268 35.7535 9.49268L35.4773 13.202L35.5523 13.2642C36.5345 14.0745 37.9483 14.0836 38.9415 13.288L39.086 13.1691L38.7934 9.55121Z" fill="#C67D69"/>
<path d="M35.4773 9.1012C35.4773 9.1012 36.1083 11.168 37.5624 11.1443C38.7568 11.126 38.9488 9.1012 38.9488 9.1012H35.4773Z" fill="#A05440"/>
<path d="M40.3902 4.99312C40.3975 6.26615 40.2201 7.36724 40.0426 8.14825C39.8689 8.9128 39.3714 9.44872 38.6654 9.88221L38.5373 9.96086C37.7911 10.42 36.8253 10.4346 36.0626 10.0011C35.2944 9.56395 34.7548 8.98414 34.5847 8.16472C34.2774 6.67586 34.2354 5.02421 34.2354 5.02421C34.2354 5.02421 33.8055 1.57826 37.1235 1.62399C40.4432 1.66971 40.3902 4.99312 40.3902 4.99312Z" fill="#C67D69"/>
<path d="M35.8833 6.27175C36.0318 6.27175 36.1522 6.15137 36.1522 6.00288C36.1522 5.85439 36.0318 5.73401 35.8833 5.73401C35.7348 5.73401 35.6144 5.85439 35.6144 6.00288C35.6144 6.15137 35.7348 6.27175 35.8833 6.27175Z" fill="#1E0B02"/>
<path d="M38.5173 6.27175C38.6658 6.27175 38.7862 6.15137 38.7862 6.00288C38.7862 5.85439 38.6658 5.73401 38.5173 5.73401C38.3688 5.73401 38.2484 5.85439 38.2484 6.00288C38.2484 6.15137 38.3688 6.27175 38.5173 6.27175Z" fill="#1E0B02"/>
<path d="M36.9571 6.39612V7.13689H37.4344" stroke="#A8523F" stroke-width="0.7482" stroke-miterlimit="10" stroke-linecap="round" stroke-linejoin="round"/>
<path d="M34.8829 4.86884L36.6369 4.71154C36.6369 4.71154 36.4796 4.2561 35.77 4.33109C35.0438 4.40426 34.8829 4.86884 34.8829 4.86884Z" fill="black"/>
<path d="M39.4043 4.86884L37.6503 4.71154C37.6503 4.71154 37.8076 4.2561 38.5172 4.33109C39.2434 4.40426 39.4043 4.86884 39.4043 4.86884Z" fill="black"/>
<path d="M36.3553 7.74963H38.0856C38.0856 7.74963 38.0052 8.28006 37.1949 8.28006C36.3846 8.28006 36.3553 7.74963 36.3553 7.74963Z" fill="#E8DDDD"/>
<path d="M34.3506 6.65397C34.3506 6.65397 34.8426 2.92816 34.6012 2.3136C34.6012 2.3136 32.9294 3.69637 34.3506 6.65397Z" fill="#1E0B02"/>
<path d="M40.2657 6.62465C40.2657 6.62465 39.7133 3.06529 39.867 2.04285C39.8651 2.04285 41.4802 3.47135 40.2657 6.62465Z" fill="#1E0B02"/>
<path d="M39.75 1.78864L38.2209 1.55635L38.0856 1.29114L37.2771 1.41368L36.4687 1.29114L36.3333 1.55635L34.8024 1.78864L34.5975 2.60806L34.6487 3.55186C34.6487 3.55186 34.8902 2.48186 35.7334 2.69403C35.9328 2.74341 36.1705 2.82755 36.4485 2.88425C36.7083 2.94095 36.957 2.96656 37.1893 2.97022C37.2168 2.97022 37.246 2.97022 37.2735 2.97022C37.3009 2.97022 37.3302 2.97022 37.3576 2.97022C37.5917 2.96656 37.8386 2.94095 38.0984 2.88425C38.3764 2.82755 38.6196 2.7617 38.8135 2.69403C39.5945 2.4215 39.8835 3.50248 39.8835 3.50248L39.9494 2.60806L39.75 1.78864Z" fill="#1E0B02"/>
<path d="M39.7208 2.71962C39.7208 2.71962 38.7258 3.60854 37.4509 2.92448C37.4509 2.92448 34.208 4.92181 33.2916 2.74706C32.5271 0.934455 35.695 -1.52564 38.9654 1.24722L39.7208 2.71962Z" fill="#1E0B02"/>
<path d="M41.2186 59.651L41.7435 66.1753L44.6261 66.2667L44.6334 58.528L41.2186 59.651Z" fill="#C67D69"/>
<path d="M41.6876 65.484C41.6876 65.484 43.6868 66.6491 44.6836 64.8237L51.9981 68.7068L40.6048 68.6373L41.6876 65.484Z" fill="#101010"/>
<path d="M40.6056 68.6357L40.5995 69.6326L51.9928 69.7023L51.9989 68.7054L40.6056 68.6357Z" fill="#E8DDDD"/>
<path d="M34.6157 59.651L34.7895 66.1753L31.905 66.2667L31.199 58.528L34.6157 59.651Z" fill="#C67D69"/>
<path d="M34.795 65.4839C34.795 65.4839 32.7958 66.649 31.799 64.8236L24.4827 68.7067L35.876 68.6372L34.795 65.4839Z" fill="#101010"/>
<path d="M35.8766 68.6384L24.4834 68.7081L24.4895 69.705L35.8827 69.6353L35.8766 68.6384Z" fill="#E8DDDD"/>
<path d="M37.7745 34.4922L40.3352 62.8336H45.4273L43.5068 28.952L37.1911 28.3941L31.9654 28.1362L29.8529 46.083C29.6809 47.7237 30.9869 49.143 32.6367 49.1083C33.9317 49.0808 35.0309 48.1517 35.2724 46.8786L37.7745 34.4922Z" fill="#3450B7"/>
<path d="M46.4516 63.3292H39.7389L39.4152 60.2875H46.1278L46.4516 63.3292Z" fill="#A1B9FC"/>
<path d="M35.2743 46.8768L35.587 62.3964H30.2133L29.8529 46.0812L35.2743 46.8768Z" fill="#3450B7"/>
<path d="M36.2363 60.2875H29.5255V63.3292H36.2363V60.2875Z" fill="#A1B9FC"/>
<path d="M42.8923 14.6707L39.086 13.1691L35.4773 13.202L30.718 15.428C30.3449 15.6511 30.4162 16.1029 30.5516 16.5163L31.6271 29.2356L43.5617 29.0709L44.3391 16.1468C44.4415 15.7224 43.2855 14.861 42.8923 14.6707Z" fill="#FFDB5B"/>
<path d="M35.4774 13.202L34.4147 13.6904C34.4147 13.6904 34.4037 15.4737 37.2918 15.3804C40.2549 15.2853 40.2475 13.6062 40.2475 13.6062L39.0861 13.1691L35.4774 13.202Z" fill="#C67D69"/>
<path d="M49.1698 22.6163L41.1457 18.7862L45.1239 16.4176L48.6869 18.6253L49.1698 22.6163Z" fill="#C67D69"/>
<path d="M42.3601 14.4897C45.336 15.3933 47.3955 17.826 47.3955 17.826L45.1567 22.2688L40.017 19.8837L42.3601 14.4897Z" fill="#FFDB5B"/>
<path d="M44.0044 21.7328L42.543 21.056" stroke="black" stroke-width="0.5" stroke-miterlimit="10" stroke-linecap="round" stroke-linejoin="round"/>
<path d="M28.3806 19.5488L26.5699 26.0676C26.365 27.1047 27.5905 28.2789 28.5837 28.5442C29.5659 28.8039 29.3574 28.0357 29.6153 27.026L32.0827 20.8584L28.3806 19.5488Z" fill="#C67D69"/>
<path d="M30.0103 26.0402L29.3079 25.069" stroke="#A8523F" stroke-width="0.7482" stroke-miterlimit="10" stroke-linecap="round" stroke-linejoin="round"/>
<path d="M30.7181 15.428C30.7181 15.428 27.7185 16.4303 27.1002 21.7584L33.0374 23.5271L34.689 18.3746L30.7181 15.428Z" fill="#FFDB5B"/>
<path d="M31.1607 23.0826L30.8936 20.1213" stroke="black" stroke-width="0.5" stroke-miterlimit="10" stroke-linecap="round" stroke-linejoin="round"/>
<path d="M42.0758 25.7453L41.1966 24.3849L48.1817 19.2745C48.9011 18.6397 50.0246 19.1219 50.4807 20.261C50.8596 21.2084 50.6203 22.2433 49.9373 22.6099L42.0758 25.7453Z" fill="#C67D69"/>
<path d="M42.182 25.7193L41.6332 26.6745C41.3471 27.1723 40.9472 27.5958 40.4674 27.9074L39.6223 28.4578C39.4213 28.5888 39.1493 28.5046 39.053 28.282C38.9714 28.0934 39.0108 27.8762 39.1518 27.7313L39.9029 26.9653L35.8617 28.093C35.6891 28.1455 35.5075 28.0328 35.4761 27.8515L35.4545 27.7308C35.4297 27.588 35.5077 27.4494 35.6405 27.3979L38.0118 26.654L35.1656 27.1286C34.989 27.1688 34.8173 27.0453 34.7957 26.8648L34.7861 26.7751C34.7677 26.6225 34.8665 26.4832 35.0141 26.4483L37.9601 25.8668L35.5174 25.8936C35.3244 25.9004 35.1745 25.7256 35.2073 25.5357L35.2139 25.4969C35.237 25.366 35.3412 25.2674 35.4719 25.2513L38.0141 24.944L36.4533 24.9283C36.2309 24.927 36.0861 24.6907 36.1808 24.4909C36.2267 24.3953 36.3191 24.3314 36.4237 24.3235L42.1093 23.8476L42.182 25.7193Z" fill="#C67D69"/>
<path d="M39.9046 26.9581C39.9046 26.9581 39.8338 26.1247 40.6084 25.4315" stroke="#A8523F" stroke-width="0.7482" stroke-miterlimit="10" stroke-linecap="round" stroke-linejoin="round"/>
<path d="M47.1334 23.2743L49.0501 22.4913" stroke="#A8523F" stroke-width="0.7482" stroke-miterlimit="10" stroke-linecap="round" stroke-linejoin="round"/>
<path d="M37.4038 28.0745L37.5813 26.4698L29.0321 24.9862C28.1029 24.7364 27.3127 25.6639 27.4148 26.8839C27.5003 27.8984 28.1787 28.718 28.955 28.7441L37.4038 28.0745Z" fill="#C67D69"/>
<path d="M37.2808 28.0715L38.2028 28.6847C38.6834 29.0042 39.2324 29.2073 39.8026 29.275L40.8077 29.3958C41.0468 29.4246 41.2524 29.2296 41.2384 28.9881C41.2265 28.7834 41.0934 28.6064 40.9018 28.5388L39.8838 28.1838L44.0119 27.4152C44.1902 27.3863 44.3021 27.2056 44.2485 27.0295L44.2134 26.9121C44.1712 26.7734 44.0389 26.6838 43.8968 26.6961L41.4374 27.0735L44.2009 26.2462C44.3771 26.2045 44.4753 26.0185 44.4132 25.8475L44.3815 25.763C44.3292 25.6184 44.1779 25.5372 44.0299 25.5709L41.1291 26.3465L43.3292 25.296C43.5052 25.2172 43.5607 24.9948 43.4457 24.8393L43.4222 24.8075C43.3426 24.7006 43.2048 24.6583 43.0805 24.7013L40.6649 25.5446L42.0559 24.844C42.2545 24.745 42.2777 24.4699 42.1028 24.3328C42.0187 24.2674 41.9071 24.2509 41.8098 24.2898L36.5024 26.3649L37.2808 28.0715Z" fill="#C67D69"/>
<path d="M39.8797 28.1865C39.8797 28.1865 39.5674 27.4096 38.5608 27.1299" stroke="#A8523F" stroke-width="0.7482" stroke-miterlimit="10" stroke-linecap="round" stroke-linejoin="round"/>
<path d="M31.7629 28.1066L29.697 28.2563" stroke="#A8523F" stroke-width="0.7482" stroke-miterlimit="10" stroke-linecap="round" stroke-linejoin="round"/>
<path fill-rule="evenodd" clip-rule="evenodd" d="M41.7244 17.8669C41.7009 17.8067 41.5421 17.4059 41.1893 17.3223C40.9319 17.2616 40.7006 17.399 40.6313 17.4401C40.3674 17.5971 40.1837 17.884 39.9753 18.6988C39.9041 18.9781 39.8361 19.3396 39.795 19.76C39.6434 18.1695 39.1383 17.0374 38.385 16.8633C38.0537 16.7867 37.5931 16.876 37.4153 17.1444C37.0775 17.6529 37.8557 18.6419 38.1811 19.056C38.4738 19.4276 38.958 19.931 39.6957 20.3926C39.6931 20.4236 39.6878 20.4648 39.6852 20.4907C39.5977 21.4038 39.6656 21.8235 39.5611 22.7106C39.5317 22.9607 39.5003 23.1614 39.4814 23.2786C39.5317 23.3545 39.6166 23.3976 39.7022 23.3906C39.7865 23.3837 39.8401 23.3311 39.8544 23.3166C39.8597 23.0595 39.8616 22.8531 39.8629 22.7277C39.8721 21.6425 39.8453 21.1435 39.8793 20.3957C40.3569 20.0266 42.0368 18.6571 41.7244 17.8669Z" fill="#167F57"/>
<path fill-rule="evenodd" clip-rule="evenodd" d="M38.0138 22.7191C38.2357 24.0076 38.457 25.2961 38.679 26.5846C39.39 26.5846 40.0997 26.5846 40.8107 26.5846C41.0145 25.3057 41.2183 24.0262 41.422 22.7473C40.2853 22.7377 39.1499 22.7281 38.0138 22.7191Z" fill="#EAD3BF"/>
</svg>
